# xmcd CD database file
#
# Track frame offsets:
#	150
#	16172
#	25861
#	60780
#	81969
#	118554
#	137761
#	156491
#	187106
#	221001
#
# Disc length: 3083 seconds
#
# Revision: 0
# Processed by: cddbd v1.5.2PL0 Copyright (c) Steve Scherf et al.
# Submitted via: CDex 1.70beta2
#
DISCID=820c090a
DTITLE=John Fahey - Twilight On Prince Georges Avenue
DYEAR=2009
DGENRE=Blues
TTITLE0=The Thing At The End Of New Hampshire Avenue
TTITLE1=Atlantic High
TTITLE2=Dianne Kelly
TTITLE3=A Minor Blues
TTITLE4=Black Mommy
TTITLE5=Sunset On Prince Georges County
TTITLE6=Twilight On Prince Georges Avenue
TTITLE7=Rain Forest
TTITLE8=Improve In E Minor
TTITLE9=Lava On Waikiki
EXTD=YEAR: 2009
EXTT0=
EXTT1=
EXTT2=
EXTT3=
EXTT4=
EXTT5=
EXTT6=
EXTT7=
EXTT8=
EXTT9=
PLAYORDER=
